<svg width="64" height="64" viewBox="0 0 64 64" fill="none" xmlns="http://www.w3.org/2000/svg">
	<path d="M25.582 29.2563C24.1366 29.2563 22.998 30.523 22.998 32.0697C22.998 33.611 24.1633 34.883 25.582 34.883C27.0246 34.883 28.1633 33.611 28.1633 32.0697C28.1926 30.5203 27.0246 29.2563 25.582 29.2563ZM34.83 29.2563C33.3846 29.2563 32.246 30.523 32.246 32.0697C32.246 33.611 33.4113 34.883 34.83 34.883C36.2726 34.883 37.4113 33.611 37.4113 32.0697C37.4086 30.5203 36.2726 29.2563 34.83 29.2563Z" fill="white" />
	<path d="M47.1413 8H13.192C12.5084 8.00175 11.8319 8.13812 11.201 8.40133C10.5702 8.66454 9.99731 9.04943 9.51519 9.53403C9.03307 10.0186 8.65112 10.5934 8.39114 11.2257C8.13117 11.8579 7.99826 12.5351 8.00002 13.2187V47.4693C8.00002 50.3573 10.3307 52.688 13.192 52.688H41.92L40.5734 47.9973L43.8187 51.0133L46.8827 53.8507L52.3334 58.6667V13.2187C52.3351 12.5351 52.2022 11.8579 51.9422 11.2257C51.6823 10.5934 51.3003 10.0186 50.8182 9.53403C50.3361 9.04943 49.7632 8.66454 49.1323 8.40133C48.5015 8.13812 47.8249 8.00175 47.1413 8ZM37.36 41.0853C37.36 41.0853 36.448 39.9973 35.6907 39.0293C39.008 38.0907 40.2747 36.016 40.2747 36.016C39.2347 36.6987 38.248 37.184 37.36 37.5147C34.1272 38.8677 30.567 39.2368 27.1254 38.576C25.8536 38.3262 24.6075 37.9602 23.4027 37.4827C22.7673 37.2413 22.1497 36.9552 21.5547 36.6267C21.4774 36.5707 21.4027 36.5493 21.328 36.4987C21.2881 36.4797 21.2526 36.4524 21.224 36.4187C20.768 36.168 20.5147 35.992 20.5147 35.992C20.5147 35.992 21.7307 38.0187 24.9494 38.9813C24.1894 39.9413 23.2507 41.0853 23.2507 41.0853C17.6533 40.9067 15.528 37.2347 15.528 37.2347C15.528 29.0773 19.176 22.4667 19.176 22.4667C22.824 19.728 26.2934 19.8053 26.2934 19.8053L26.5467 20.1093C21.9867 21.4293 19.8827 23.4293 19.8827 23.4293C19.8827 23.4293 20.4427 23.1253 21.3787 22.696C24.088 21.5067 26.24 21.176 27.128 21.0987C27.28 21.0747 27.408 21.048 27.56 21.048C31.9526 20.456 36.4191 21.2908 40.3014 23.4293C40.3014 23.4293 38.2987 21.5307 33.992 20.2133L34.3467 19.808C34.3467 19.808 37.8187 19.7307 41.464 22.4693C41.464 22.4693 45.112 29.08 45.112 37.2373C45.112 37.2347 42.96 40.9067 37.36 41.0853Z" fill="white" />
</svg>	