<svg width="64" height="64" viewBox="0 0 64 64" fill="none" xmlns="http://www.w3.org/2000/svg">
	<path d="M52.3548 21.3253C52.3895 21.792 52.3895 22.256 52.3895 22.72C52.3895 36.92 41.5815 53.2826 21.8295 53.2826C15.7442 53.2826 10.0908 51.52 5.3335 48.4586C6.1975 48.5573 7.0295 48.592 7.92816 48.592C12.7628 48.6036 17.4606 46.987 21.2642 44.0026C19.0226 43.9621 16.8497 43.2225 15.0488 41.8872C13.2479 40.552 11.9089 38.6877 11.2188 36.5546C11.8828 36.6533 12.5495 36.72 13.2482 36.72C14.2108 36.72 15.1788 36.5866 16.0775 36.3546C13.6449 35.8635 11.4574 34.5449 9.88715 32.6231C8.31687 30.7013 7.46068 28.295 7.46416 25.8133V25.68C8.89616 26.4773 10.5575 26.976 12.3175 27.0426C10.8431 26.0628 9.63408 24.7333 8.7984 23.1727C7.96272 21.6121 7.52633 19.8689 7.52816 18.0986C7.52816 16.104 8.05883 14.2746 8.9895 12.68C11.6885 16 15.0548 18.7161 18.8704 20.6524C22.6859 22.5886 26.8657 23.7019 31.1388 23.92C30.9735 23.12 30.8722 22.2906 30.8722 21.4586C30.8715 20.0479 31.1488 18.6508 31.6884 17.3473C32.2279 16.0437 33.0191 14.8594 34.0167 13.8618C35.0142 12.8642 36.1986 12.073 37.5021 11.5335C38.8056 10.9939 40.2027 10.7166 41.6135 10.7173C44.7068 10.7173 47.4988 12.0133 49.4615 14.1093C51.8662 13.6443 54.1723 12.7664 56.2775 11.5146C55.4759 13.9968 53.7969 16.1016 51.5548 17.4346C53.6876 17.1914 55.772 16.6305 57.7388 15.7706C56.2698 17.9122 54.4496 19.7902 52.3548 21.3253Z" fill="white" />
</svg>